#!OML:ASF G:\JayActor3\Patient Classification 1\Patient 1\Session 6\male.ASF
:FULLY-SPECIFIED
:DEGREES
1642
root 1.29073 15.5976 10.3298 198.073 -49.5871 -170.643
lowerback 35.732 -0.843748 -0.269957
upperback 7.12429 -2.53447 -0.416645
thorax -9.96547 -1.68427 0.781669
lowerneck 13.9128 1.83763 3.00867
upperneck -33.0686 3.26338 3.15037
head -13.4968 -0.127342 0.397487
rclavicle 1.90833e-014 -1.51076e-014
rhumerus -39.9583 9.88712 -88.2402
rradius 63.1355
rwrist -1.7374
rhand -18.8261 -2.4605
rfingers 7.12502
rthumb 7.47298 -32.3085
lclavicle 1.90833e-014 -1.51076e-014
lhumerus -53.4097 -16.6167 93.096
lradius 64.6888
lwrist 40.9213
lhand -23.5326 4.19349
lfingers 7.12502
lthumb 2.92872 34.1531
rfemur -65.3914 6.91452 18.8935
rtibia 54.7599
rfoot -13.7064 -10.429
rtoes -4.87819
lfemur -62.0016 7.64581 -17.4737
ltibia 55.8781
lfoot -18.9108 2.51305
ltoes -0.30772
1643
root 1.28315 15.5942 10.3454 198.146 -49.4234 -170.687
lowerback 35.7513 -0.837063 -0.280942
upperback 7.11901 -2.53287 -0.419775
thorax -9.97829 -1.68398 0.784332
lowerneck 13.8479 1.88743 3.07982
upperneck -33.0153 3.31739 3.04048
head -13.455 -0.0940484 0.332548
rclavicle -1.90833e-014 2.3059e-014
rhumerus -40.0094 9.90567 -88.2347
rradius 63.2061
rwrist -1.76993
rhand -18.8295 -2.46369
rfingers 7.12502
rthumb 7.46976 -32.3118
lclavicle -1.90833e-014 2.3059e-014
lhumerus -53.4457 -16.7309 93.1172
lradius 64.6703
lwrist 40.8928
lhand -23.4657 4.17275
lfingers 7.12502
lthumb 2.99332 34.1315
rfemur -65.4927 7.00636 18.7627
rtibia 54.7887
rfoot -13.6729 -10.4454
rtoes -4.93264
lfemur -62.0738 7.81127 -17.6644
ltibia 55.928
lfoot -18.9631 2.55015
ltoes -0.35063
1644
root 1.27507 15.5909 10.3607 198.216 -49.2519 -170.739
lowerback 35.7842 -0.828558 -0.296958
upperback 7.11092 -2.53133 -0.424172
thorax -9.99919 -1.68359 0.788794
lowerneck 13.7638 1.93628 3.153
upperneck -32.95 3.36971 2.93438
head -13.4039 -0.0617008 0.269189
rclavicle -3.33958e-014 -4.29375e-014
rhumerus -40.0707 9.93187 -88.2378
rradius 63.2731
rwrist -1.80454
rhand -18.8321 -2.45766
rfingers 7.12502
rthumb 7.46717 -32.3059
lclavicle -3.33958e-014 -4.29375e-014
lhumerus -53.4988 -16.8546 93.1413
lradius 64.6725
lwrist 40.8697
lhand -23.3762 4.15524
lfingers 7.12502
lthumb 3.07979 34.1127
rfemur -65.5859 7.105 18.6259
rtibia 54.8217
rfoot -13.6432 -10.4674
rtoes -5.00088
lfemur -62.1334 7.98513 -17.8666
ltibia 55.9765
lfoot -19.0187 2.59361
ltoes -0.447211
1645
root 1.2662 15.5881 10.3756 198.282 -49.0753 -170.801
lowerback 35.8349 -0.822051 -0.310989
upperback 7.10151 -2.53303 -0.43407
thorax -10.0284 -1.68482 0.788175
lowerneck 13.6637 1.98621 3.23035
upperneck -32.8791 3.42398 2.83197
head -13.3468 -0.0294775 0.206626
rclavicle -2.54444e-014 1.15295e-013
rhumerus -40.1387 9.96171 -88.2554
rradius 63.3296
rwrist -1.83717
rhand -18.8542 -2.42781
rfingers 7.12502
rthumb 7.44587 -32.2768
lclavicle -2.54444e-014 1.15295e-013
lhumerus -53.5676 -16.9899 93.1631
lradius 64.6943
lwrist 40.857
lhand -23.2656 4.14073
lfingers 7.12502
lthumb 3.18659 34.0967
rfemur -65.6634 7.20373 18.4845
rtibia 54.8584
rfoot -13.6218 -10.489
rtoes -5.06016
lfemur -62.1738 8.17076 -18.0849
ltibia 56.0221
lfoot -19.0782 2.63575
ltoes -0.566053
1646
root 1.25674 15.5854 10.3903 198.347 -48.8924 -170.876
lowerback 35.8994 -0.816147 -0.320031
upperback 7.09212 -2.53554 -0.452196
thorax -10.0631 -1.68668 0.776895
lowerneck 13.5467 2.04101 3.32
upperneck -32.8088 3.48565 2.72665
head -13.2861 0.00439522 0.140217
rclavicle 5.56597e-014 3.81667e-014
rhumerus -40.2056 9.98304 -88.2883
rradius 63.3662
rwrist -1.85668
rhand -18.8826 -2.39738
rfingers 7.12502
rthumb 7.41848 -32.2473
lclavicle 5.56597e-014 3.81667e-014
lhumerus -53.6454 -17.1456 93.1798
lradius 64.7309
lwrist 40.8611
lhand -23.1516 4.11667
lfingers 7.12502
lthumb 3.29673 34.0709
rfemur -65.7318 7.29975 18.3382
rtibia 54.9001
rfoot -13.604 -10.5069
rtoes -5.1114
lfemur -62.202 8.37131 -18.321
ltibia 56.0662
lfoot -19.1369 2.66357
ltoes -0.673603
